# xmcd CD database file
#
# Track frame offsets:
#	150
#	14796
#	28210
#	43240
#	57985
#	72902
#	85429
#	100261
#	115475
#	130444
#	146039
#	158005
#	170487
#	186334
#	202723
#	215970
#	229525
#	244908
#	256714
#	271283
#	284156
#	298898
#	306954
#
# Disc length: 4297 seconds
#
# Revision: 0
# Processed by: cddbd v1.5.2PL0 Copyright (c) Steve Scherf et al.
# Submitted via: CDex 1.70beta2
#
DISCID=7410c717
DTITLE=Billie Holiday - Une anthologie 1947/1956
DYEAR=2007
DGENRE=Jazz
TTITLE0=Solitude
TTITLE1=My Man (Mon Homme)
TTITLE2=Tain't Nobody's Biz-ness If I ...
TTITLE3=Keeps On Rainin'
TTITLE4=Do Your Duty
TTITLE5=Gimme A Pigfoot And A Bottle O...
TTITLE6=You Can't Lose A Broken Heart
TTITLE7=My Sweet Hunk O' Trash
TTITLE8=Now Or Never
TTITLE9=You're My Thrill
TTITLE10=Be Fair With Me Baby
TTITLE11=Lover, Come Back To Me
TTITLE12=Blue Moon
TTITLE13=These Foolish Things
TTITLE14=I Only Have Eyes For You
TTITLE15=Moonglow
TTITLE16=Tenderly
TTITLE17=Remember
TTITLE18=He's Funny That Way
TTITLE19=Yesterdays
TTITLE20=I Can't Face The Music
TTITLE21=Them There Eyes
TTITLE22=I Cover The Waterfront
EXTD=YEAR: 2007
EXTT0=
EXTT1=
EXTT2=
EXTT3=
EXTT4=
EXTT5=
EXTT6=
EXTT7=
EXTT8=
EXTT9=
EXTT10=
EXTT11=
EXTT12=
EXTT13=
EXTT14=
EXTT15=
EXTT16=
EXTT17=
EXTT18=
EXTT19=
EXTT20=
EXTT21=
EXTT22=
PLAYORDER=
